<svg width="666" height="666" viewBox="0 0 666 666" fill="none" xmlns="http://www.w3.org/2000/svg">
<path d="M130.748 490.776V249.417H178.413V283.216C188.813 269.35 199.501 259.528 210.479 253.75C221.745 247.684 233.878 244.651 246.878 244.651C263.344 244.651 277.354 248.262 288.91 255.484C300.754 262.417 308.553 272.672 312.309 286.249C327.042 258.517 351.452 244.651 385.54 244.651C412.405 244.651 432.483 252.306 445.771 267.617C459.06 282.927 465.704 304.738 465.704 333.048V490.776H418.039V340.847C418.039 322.359 414.283 308.493 406.772 299.249C399.262 289.716 388.573 284.949 374.707 284.949C360.552 284.949 349.141 289.571 340.475 298.816C333.541 306.326 328.631 316.004 325.742 327.848C323.142 339.403 321.842 354.28 321.842 372.48V490.776H274.61V340.847C274.61 322.937 270.71 309.215 262.91 299.682C255.111 289.86 244.278 284.949 230.411 284.949C223.478 284.949 217.123 286.249 211.345 288.849C205.568 291.449 200.657 295.205 196.613 300.115C190.257 307.049 185.635 316.148 182.746 327.415C179.857 338.681 178.413 353.703 178.413 372.48V490.776H130.748Z" fill="#FAFAFA"/>
<path d="M543.427 495.542C534.761 495.542 527.394 492.509 521.328 486.443C515.261 480.376 512.228 473.154 512.228 464.777C512.228 456.688 515.261 449.755 521.328 443.977C527.683 438.2 535.05 435.311 543.427 435.311C551.227 435.311 558.015 438.2 563.793 443.977C569.571 449.755 572.459 456.688 572.459 464.777C572.459 473.154 569.571 480.376 563.793 486.443C558.015 492.509 551.227 495.542 543.427 495.542Z" fill="#FF2E00"/>
<rect x="9.57617" y="9.57617" width="646.388" height="646.388" stroke="#FAFAFA" stroke-width="19.1522"/>
</svg>
